# xmcd
#
# Track frame offsets: 
#        150
#        13198
#        23313
#        33353
#        48580
#        58235
#        68848
#        80675
#        93130
#        105175
#
# Disc length: 1585 seconds
#
# Revision: 5
# Processed by: cddbd v1.5.1PL0 Copyright (c) Steve Scherf et al.
# Submitted via: ExactAudioCopy v0.95a5
#
DISCID=71062f0a
DTITLE=Various Artist - Number 1 Country Hits
DYEAR=1998
DGENRE=Country
TTITLE0=Lynn Anderson - Rose Garden
TTITLE1=Faron Young - Hello Walls
TTITLE2=Conway Twitty - It's Only Make Believe
TTITLE3=Kenny Rogers - For The Good Times
TTITLE4=Leroy Van Dyke - Walk On By
TTITLE5=Ferlin Husky - Wings Of A Dove
TTITLE6=Donna Fargo - Funny Face
TTITLE7=Johnny Paycheck - Take This Job And Shove It
TTITLE8=Freddy Fender - Before The Next Teardrop Falls
TTITLE9=Moe Bandy - I Cheated Me Right Out Of You
EXTD=YEAR: 1998
EXTT0=
EXTT1=
EXTT2=
EXTT3=
EXTT4=
EXTT5=
EXTT6=
EXTT7=
EXTT8=
EXTT9=
PLAYORDER=
